<svg width="220" height="220" viewBox="0 0 220 220" fill="none" xmlns="http://www.w3.org/2000/svg">
  <rect width="220" height="220" fill="#FFFFFF" />
  <path
    d="M45.1448 122V114.848H31.9928V88.016H23.7368V122H45.1448ZM90.1733 104.864C90.1733 93.968 82.3013 87.104 71.6453 87.104C61.0373 87.104 53.1653 93.968 53.1653 104.864C53.1653 115.616 61.0373 122.912 71.6453 122.912C82.3013 122.912 90.1733 115.616 90.1733 104.864ZM81.3893 104.864C81.3893 111.008 77.3573 115.424 71.6453 115.424C65.9333 115.424 61.9493 111.008 61.9493 104.864C61.9493 98.912 65.8853 94.496 71.6453 94.496C77.4053 94.496 81.3893 98.912 81.3893 104.864ZM125.145 95.024V88.016H102.777V122H110.889V108.8H124.041V102.032H110.889V95.024H125.145ZM161.778 95.024V88.016H134.37V95.024H143.97V122H152.178V95.024H161.778ZM201.73 88.016H192.13L184.882 100.592L177.634 88.016H167.698L180.466 107.6V122H188.674V107.6L201.73 88.016Z"
    fill="black" />
</svg>