<svg width="220" height="220" viewBox="0 0 220 220" fill="none" xmlns="http://www.w3.org/2000/svg">
<rect width="220" height="220" fill="black"/>
<path d="M44.1448 122V114.848H30.9928V88.016H22.7368V122H44.1448ZM89.1733 104.864C89.1733 93.968 81.3013 87.104 70.6453 87.104C60.0373 87.104 52.1653 93.968 52.1653 104.864C52.1653 115.616 60.0373 122.912 70.6453 122.912C81.3013 122.912 89.1733 115.616 89.1733 104.864ZM80.3893 104.864C80.3893 111.008 76.3573 115.424 70.6453 115.424C64.9333 115.424 60.9493 111.008 60.9493 104.864C60.9493 98.912 64.8853 94.496 70.6453 94.496C76.4053 94.496 80.3893 98.912 80.3893 104.864ZM124.145 95.024V88.016H101.777V122H109.889V108.8H123.041V102.032H109.889V95.024H124.145ZM160.778 95.024V88.016H133.37V95.024H142.97V122H151.178V95.024H160.778ZM200.73 88.016H191.13L183.882 100.592L176.634 88.016H166.698L179.466 107.6V122H187.674V107.6L200.73 88.016Z" fill="#F5F5F5"/>
</svg>
